<svg width="110" height="110" viewBox="0 0 110 110" fill="none" xmlns="http://www.w3.org/2000/svg">
<path d="M55 24.0625C72.0863 24.0625 85.9375 37.9137 85.9375 55C85.9375 72.0863 72.0863 85.9375 55 85.9375C37.9137 85.9375 24.0625 72.0863 24.0625 55C24.0625 37.9137 37.9137 24.0625 55 24.0625Z" fill="url(#paint0_radial_134_7683)"/>
<path d="M55 91.0938C57.8478 91.0938 60.1563 93.4022 60.1563 96.25V101.406C60.1563 104.254 57.8478 106.563 55 106.563C52.1522 106.563 49.8438 104.254 49.8438 101.406V96.25C49.8438 93.4022 52.1522 91.0938 55 91.0938ZM87.8144 80.5224L91.4604 84.1684C93.4739 86.1819 93.4739 89.4463 91.4604 91.4604C89.4469 93.4739 86.1819 93.4739 84.1684 91.4604L80.5224 87.8144C78.5089 85.8004 78.5089 82.5359 80.5224 80.5224C82.5359 78.5084 85.8009 78.5084 87.8144 80.5224ZM22.1855 80.5224C24.1992 78.5084 27.464 78.5084 29.4776 80.5224C31.3363 82.3811 31.4793 85.306 29.9065 87.3287L29.4776 87.8144L25.8316 91.4604C23.8179 93.4739 20.5532 93.4739 18.5395 91.4604C16.6808 89.6017 16.5378 86.6768 18.1106 84.6541L18.5395 84.1684L22.1855 80.5224ZM13.75 49.8438C16.5977 49.8438 18.9063 52.1522 18.9063 55C18.9063 57.6444 16.9157 59.8237 14.3513 60.1216L13.75 60.1563H8.59375C5.74606 60.1563 3.4375 57.8478 3.4375 55C3.4375 52.3556 5.42804 50.1763 7.99243 49.8784L8.59375 49.8438H13.75ZM101.406 49.8438C104.254 49.8438 106.563 52.1522 106.563 55C106.563 57.8478 104.254 60.1563 101.406 60.1563H96.25C93.4022 60.1563 91.0938 57.8478 91.0938 55C91.0938 52.1522 93.4022 49.8438 96.25 49.8438H101.406ZM18.5397 18.5395C20.3984 16.6808 23.3232 16.5378 25.346 18.1106L25.8317 18.5395L29.4778 22.1856C31.4914 24.1992 31.4914 27.464 29.4778 29.4776C27.619 31.3363 24.6942 31.4793 22.6715 29.9065L22.1857 29.4776L18.5397 25.8316C16.526 23.8179 16.526 20.5532 18.5397 18.5395ZM91.4604 18.5396C93.4739 20.5533 93.4739 23.818 91.4604 25.8317L87.8144 29.4777C85.8004 31.4913 82.5359 31.4913 80.5224 29.4777C78.5084 27.464 78.5084 24.1993 80.5224 22.1856L84.1684 18.5396C86.1819 16.526 89.4463 16.526 91.4604 18.5396ZM55 3.4375C57.8478 3.4375 60.1563 5.74606 60.1563 8.59375V13.75C60.1563 16.5977 57.8478 18.9063 55 18.9063C52.1522 18.9063 49.8438 16.5977 49.8438 13.75V8.59375C49.8438 5.74606 52.1522 3.4375 55 3.4375Z" fill="url(#paint1_linear_134_7683)"/>
<defs>
<radialGradient id="paint0_radial_134_7683" cx="0" cy="0" r="1" gradientUnits="userSpaceOnUse" gradientTransform="translate(33.5156 31.7969) rotate(43.0203) scale(71.6968)">
<stop offset="0.193671" stop-color="#FFE475"/>
<stop offset="0.529275" stop-color="#FFB029"/>
<stop offset="0.780467" stop-color="#FF9100"/>
</radialGradient>
<linearGradient id="paint1_linear_134_7683" x1="2.79296" y1="2.79297" x2="107.207" y2="107.207" gradientUnits="userSpaceOnUse">
<stop offset="0.166667" stop-color="#FFE475"/>
<stop offset="0.798611" stop-color="#FFBF29"/>
</linearGradient>
</defs>
</svg>
